<?xml version="1.0" standalone="no"?><!-- Generator: Gravit.io --><svg xmlns="http://www.w3.org/2000/svg" xmlns:xlink="http://www.w3.org/1999/xlink" style="isolation:isolate" viewBox="0 0 350 350" width="350" height="350"><defs><clipPath id="_clipPath_BC1bhe53XG4cxnnRQwmAXtCGqueWTKOX"><rect width="350" height="350"/></clipPath></defs><g clip-path="url(#_clipPath_BC1bhe53XG4cxnnRQwmAXtCGqueWTKOX)"><path d=" M 175.356 46.71 C 174.172 46.768 173.014 46.347 172.143 45.543 C 171.272 44.739 170.76 43.618 170.723 42.433 L 170.723 42.433 L 170.723 5.012 C 170.723 2.453 172.798 0.379 175.356 0.379 C 177.915 0.379 179.99 2.453 179.99 5.012 L 179.99 42.433 C 179.669 44.784 177.726 46.578 175.356 46.71 Z " fill="rgb(247,119,70)"/><path d=" M 152.547 60.609 C 151.79 60.535 151.059 60.291 150.409 59.896 L 117.977 41.364 C 115.812 40.183 115.014 37.47 116.195 35.305 C 117.376 33.14 120.089 32.342 122.254 33.523 L 154.686 52.056 C 156.807 53.271 157.593 55.943 156.468 58.114 C 155.867 59.73 154.265 60.749 152.547 60.609 Z " fill="rgb(247,119,70)"/><path d=" M 137.579 74.152 L 124.036 74.152 C 121.477 74.152 119.403 72.078 119.403 69.519 C 119.403 66.96 121.477 64.886 124.036 64.886 L 137.579 64.886 C 140.122 64.924 142.174 66.976 142.212 69.519 C 142.04 72.003 140.063 73.98 137.579 74.152 Z " fill="rgb(247,119,70)"/><path d=" M 227.033 72.726 L 213.49 72.726 C 210.932 72.726 208.857 70.652 208.857 68.093 C 208.857 65.534 210.932 63.46 213.49 63.46 L 227.033 63.46 C 229.453 63.47 231.463 65.326 231.666 67.737 C 231.639 70.346 229.633 72.506 227.033 72.726 L 227.033 72.726 Z " fill="rgb(247,119,70)"/><path d=" M 193.889 39.938 C 191.346 39.9 189.294 37.848 189.256 35.305 C 189.33 34.548 189.573 33.817 189.969 33.167 L 196.74 21.762 C 197.921 19.597 200.634 18.799 202.799 19.98 C 204.964 21.161 205.762 23.874 204.581 26.039 L 204.581 26.039 L 197.809 37.443 C 197.208 39.059 195.607 40.078 193.889 39.938 Z " fill="rgb(247,119,70)"/><path d=" M 155.755 40.651 C 154.14 40.775 152.604 39.937 151.834 38.513 L 145.063 26.752 C 144.229 24.489 145.33 21.972 147.558 21.049 C 149.354 20.395 151.368 20.97 152.547 22.475 L 159.319 34.236 C 160.445 36.407 159.659 39.079 157.537 40.295 C 157.003 40.618 156.372 40.744 155.755 40.651 Z " fill="rgb(247,119,70)"/><path d=" M 121.185 105.871 C 120 105.929 118.842 105.508 117.971 104.704 C 117.1 103.9 116.588 102.779 116.552 101.594 C 116.427 99.98 117.265 98.443 118.69 97.674 L 151.122 78.785 C 153.287 77.604 155.999 78.402 157.18 80.567 C 158.361 82.732 157.564 85.445 155.398 86.626 L 122.967 105.158 C 122.61 105.871 121.897 105.871 121.185 105.871 Z " fill="rgb(247,119,70)"/><path d=" M 231.666 104.802 C 230.909 104.728 230.178 104.484 229.528 104.089 L 197.096 85.556 C 194.931 84.375 194.133 81.663 195.314 79.498 C 196.495 77.333 199.208 76.535 201.373 77.716 L 201.373 77.716 L 233.805 96.248 C 235.927 97.464 236.713 100.136 235.587 102.307 C 234.865 103.82 233.343 104.788 231.666 104.802 Z " fill="rgb(247,119,70)"/><path d=" M 198.522 59.54 C 197.338 59.598 196.18 59.177 195.308 58.373 C 194.437 57.569 193.926 56.448 193.889 55.263 C 193.765 53.649 194.603 52.112 196.027 51.343 L 228.815 32.454 C 230.98 31.273 233.693 32.071 234.874 34.236 C 236.055 36.401 235.257 39.114 233.092 40.295 L 200.66 58.827 C 200.066 59.331 199.3 59.586 198.522 59.54 Z " fill="rgb(247,119,70)"/><path d=" M 275.503 154.34 L 275.503 132.6 C 272.336 132.648 269.28 131.435 267.008 129.23 C 264.735 127.024 263.432 124.006 263.385 120.839 L 247.348 120.839 C 247.348 125.168 245.038 129.169 241.289 131.333 C 237.54 133.498 232.921 133.498 229.172 131.333 C 225.423 129.169 223.113 125.168 223.113 120.839 L 207.075 120.839 C 207.104 124.062 205.837 127.161 203.558 129.439 C 201.279 131.718 198.18 132.986 194.958 132.957 C 193.354 132.943 191.773 132.578 190.325 131.888 C 186.077 129.758 183.242 125.574 182.841 120.839 C 182.841 120.839 179.277 89.12 177.851 75.934 L 177.851 75.934 L 181.059 73.795 C 182.907 72.181 183.95 69.834 183.91 67.38 C 183.985 64.639 182.804 62.014 180.702 60.253 C 177.886 57.68 173.774 57.112 170.367 58.827 C 167.246 60.532 165.325 63.825 165.377 67.38 C 165.41 69.819 166.44 72.137 168.229 73.795 C 169.187 74.835 170.424 75.577 171.792 75.934 L 171.792 75.934 C 170.367 89.12 167.159 120.839 167.159 120.839 C 166.861 124.77 164.92 128.392 161.813 130.818 C 156.26 134.348 148.919 132.942 145.063 127.611 C 143.667 125.629 142.92 123.263 142.925 120.839 L 126.531 120.839 C 126.559 124.062 125.292 127.161 123.013 129.439 C 120.735 131.718 117.636 132.986 114.413 132.957 C 111.229 132.866 108.217 131.488 106.068 129.136 C 103.918 126.785 102.814 123.663 103.009 120.483 L 86.615 120.483 C 86.643 123.705 85.376 126.804 83.097 129.083 C 80.819 131.362 77.72 132.629 74.497 132.6 L 74.497 132.6 L 74.497 154.34 L 74.854 154.34 C 81.546 154.34 86.971 159.765 86.971 166.458 C 86.971 173.15 81.546 178.575 74.854 178.575 L 74.497 178.575 L 74.497 199.959 L 74.854 199.959 C 81.546 199.959 86.971 205.384 86.971 212.076 C 86.971 218.768 81.546 224.193 74.854 224.193 L 74.497 224.193 L 74.497 245.933 L 74.854 245.933 C 81.546 245.933 86.971 251.358 86.971 258.051 C 86.971 264.743 81.546 270.168 74.854 270.168 L 74.497 270.168 L 74.497 291.908 L 74.854 291.908 C 81.546 291.908 86.971 297.333 86.971 304.025 C 86.971 310.718 81.546 316.143 74.854 316.143 L 74.497 316.143 L 74.497 337.883 L 74.854 337.883 C 78.076 337.854 81.175 339.121 83.454 341.4 C 85.732 343.679 87 346.778 86.971 350 L 103.009 350 C 103.009 343.308 108.434 337.883 115.126 337.883 C 121.818 337.883 127.243 343.308 127.243 350 L 143.281 350 C 143.281 343.308 148.706 337.883 155.398 337.883 C 162.091 337.883 167.516 343.308 167.516 350 L 183.553 350 C 183.553 343.308 188.979 337.883 195.671 337.883 C 202.363 337.883 207.788 343.308 207.788 350 L 223.826 350 C 223.826 343.308 229.251 337.883 235.943 337.883 C 242.635 337.883 248.061 343.308 248.061 350 L 263.385 350 C 263.357 346.778 264.624 343.679 266.903 341.4 C 269.181 339.121 272.28 337.854 275.503 337.883 L 275.503 337.883 L 275.503 315.786 C 271.174 315.786 267.173 313.477 265.009 309.728 C 262.844 305.978 262.844 301.359 265.009 297.61 C 267.173 293.861 271.174 291.552 275.503 291.552 L 275.503 291.552 L 275.503 269.812 C 271.174 269.812 267.173 267.502 265.009 263.753 C 262.844 260.004 262.844 255.385 265.009 251.636 C 267.173 247.886 271.174 245.577 275.503 245.577 L 275.503 245.577 L 275.503 223.837 C 271.174 223.837 267.173 221.527 265.009 217.778 C 262.844 214.029 262.844 209.41 265.009 205.661 C 267.173 201.912 271.174 199.602 275.503 199.602 L 275.503 199.602 L 275.503 177.862 C 269.007 177.862 263.742 172.597 263.742 166.101 C 263.742 159.606 269.007 154.34 275.503 154.34 Z  M 250.555 314.717 C 250.585 316.049 250.069 317.336 249.126 318.278 C 248.184 319.22 246.898 319.736 245.566 319.707 L 198.522 319.707 L 198.522 271.237 C 198.554 270.755 198.376 270.283 198.035 269.942 C 197.694 269.601 197.222 269.423 196.74 269.455 L 152.904 269.455 C 152.422 269.423 151.95 269.601 151.609 269.942 C 151.267 270.283 151.09 270.755 151.122 271.237 L 151.122 271.237 L 151.122 319.707 L 104.434 319.707 C 103.102 319.736 101.816 319.22 100.874 318.278 C 99.931 317.336 99.415 316.049 99.445 314.717 L 99.445 151.489 C 99.501 148.757 101.702 146.556 104.434 146.5 L 245.566 146.5 C 246.898 146.47 248.184 146.986 249.126 147.929 C 250.069 148.871 250.585 150.157 250.555 151.489 L 250.555 314.717 Z " fill="rgb(0,198,244)"/><path d=" M 131.876 175.724 L 217.054 175.724 C 217.63 175.759 218.089 176.218 218.124 176.793 L 218.124 193.9 C 218.089 194.475 217.63 194.934 217.054 194.969 L 131.876 194.969 C 131.301 194.934 130.842 194.475 130.807 193.9 L 130.807 176.793 C 130.842 176.218 131.301 175.759 131.876 175.724 Z " fill="rgb(0,198,244)"/><path d=" M 131.876 222.411 L 217.054 222.411 C 217.63 222.446 218.089 222.905 218.124 223.481 L 218.124 240.587 C 218.089 241.163 217.63 241.622 217.054 241.657 L 131.876 241.657 C 131.301 241.622 130.842 241.163 130.807 240.587 L 130.807 223.481 C 130.842 222.905 131.301 222.446 131.876 222.411 Z " fill="rgb(0,198,244)"/></g></svg>